# xmcd
#
# Track frame offsets:
#	150
#	16375
#	30027
#	51212
#	67597
#	80782
#	96082
#	108999
#	122737
#	140212
#	153887
#	166425
#
# Disc length: 2469 seconds
# Revision: 0
# Processed by: cddbd v1.5.2PL0 Copyright (c) Steve Scherf et al.
# Submitted via: dBpowerAMP V12.0
#
DISCID=9109a30c
DTITLE=Jim Koeppel - Johnny's in the Doghouse
DYEAR=1998
DGENRE=Blues
TTITLE0=It's What She Said
TTITLE1=Oh What a World
TTITLE2=How Could We Just Walk Away?
TTITLE3=The Morning Light
TTITLE4=Diggin' Down
TTITLE5=From Now On
TTITLE6=This Loneliness Is Mine
TTITLE7=Carry Me Away
TTITLE8=Hey Mister
TTITLE9=Sometimes Too Human
TTITLE10=We Always End Up At Home
TTITLE11=Johnny's in the Doghouse
EXTD=
EXTT0=
EXTT1=
EXTT2=
EXTT3=
EXTT4=
EXTT5=
EXTT6=
EXTT7=
EXTT8=
EXTT9=
EXTT10=
EXTT11=
PLAYORDER=
